<svg width="0" height="0" class="hidden">
  <symbol fill="none" xmlns="http://www.w3.org/2000/svg" viewBox="0 0 24 24" id="division-icon">
    <path d="M4.5 10.9286L19.5 10.9286L19.5 13.0714L4.5 13.0714L4.5 10.9286ZM12 19.5C11.4317 19.5 10.8866 19.2742 10.4848 18.8724C10.0829 18.4705 9.85714 17.9255 9.85714 17.3571C9.85714 16.7888 10.0829 16.2438 10.4848 15.8419C10.8866 15.4401 11.4317 15.2143 12 15.2143C12.5683 15.2143 13.1134 15.4401 13.5152 15.8419C13.9171 16.2438 14.1429 16.7888 14.1429 17.3571C14.1429 17.9255 13.9171 18.4705 13.5152 18.8724C13.1134 19.2742 12.5683 19.5 12 19.5ZM12 8.78571C11.4317 8.78571 10.8866 8.55995 10.4848 8.15809C10.0829 7.75622 9.85714 7.21118 9.85714 6.64286C9.85714 6.07454 10.0829 5.52949 10.4848 5.12763C10.8866 4.72576 11.4317 4.5 12 4.5C12.5683 4.5 13.1134 4.72576 13.5152 5.12763C13.9171 5.52949 14.1429 6.07454 14.1429 6.64286C14.1429 7.21118 13.9171 7.75622 13.5152 8.15809C13.1134 8.55995 12.5683 8.78571 12 8.78571Z" fill="#212121"></path>
  </symbol>
  <symbol fill="none" xmlns="http://www.w3.org/2000/svg" viewBox="0 0 24 24" id="multiplication-icon">
    <path d="M4.5 6L6 4.5L12 10.5L18 4.5L19.5 6L13.5 12L19.5 18L18 19.5L12 13.5L6 19.5L4.5 18L10.5 12L4.5 6Z" fill="#212121"></path>
  </symbol>
  <symbol fill="none" xmlns="http://www.w3.org/2000/svg" viewBox="0 0 24 24" id="subtraction-icon">
    <path d="M4.5 13V11H19.5V13H4.5Z" fill="#212121"></path>
  </symbol>
  <symbol fill="none" xmlns="http://www.w3.org/2000/svg" viewBox="0 0 24 24" id="add-icon">
    <path d="M10.9286 19.5V13.0714H4.5V10.9286H10.9286V4.5H13.0714V10.9286H19.5V13.0714H13.0714V19.5H10.9286Z" fill="#212121"></path>
  </symbol>
  <symbol fill="none" xmlns="http://www.w3.org/2000/svg" viewBox="0 0 24 24" id="equals-icon">
    <path d="M19.5 9.55289H4.5V7.41003H19.5V9.55289ZM19.5 15.9815H4.5V13.8386H19.5V15.9815Z" fill="#212121"></path>
  </symbol>
  <symbol fill="none" xmlns="http://www.w3.org/2000/svg" viewBox="0 0 24 24" id="light-mode-icon">
    <g clip-path="url(#clip0_43_2138)">
      <g clip-path="url(#clip1_43_2138)">
        <path d="M11.999 18.3C12.2377 18.3 12.4666 18.3948 12.6354 18.5636C12.8042 18.7324 12.899 18.9613 12.899 19.2V20.1C12.899 20.3387 12.8042 20.5676 12.6354 20.7364C12.4666 20.9052 12.2377 21 11.999 21C11.7603 21 11.5314 20.9052 11.3626 20.7364C11.1938 20.5676 11.099 20.3387 11.099 20.1V19.2C11.099 18.9613 11.1938 18.7324 11.3626 18.5636C11.5314 18.3948 11.7603 18.3 11.999 18.3ZM17.7266 16.455L18.3629 17.0913C18.5268 17.261 18.6176 17.4884 18.6155 17.7244C18.6135 17.9603 18.5188 18.1861 18.3519 18.3529C18.1851 18.5198 17.9593 18.6145 17.7234 18.6165C17.4874 18.6186 17.26 18.5278 17.0903 18.3639L16.454 17.7276C16.2901 17.5579 16.1993 17.3305 16.2014 17.0945C16.2034 16.8586 16.2981 16.6328 16.465 16.466C16.6318 16.2991 16.8576 16.2044 17.0935 16.2024C17.3295 16.2003 17.5569 16.2911 17.7266 16.455ZM6.2714 16.455C6.43336 16.2936 6.65069 16.1999 6.87925 16.1929C7.1078 16.1859 7.33044 16.2662 7.50195 16.4174C7.67346 16.5687 7.78098 16.7795 7.80266 17.0071C7.82435 17.2348 7.75857 17.4621 7.6187 17.643L7.544 17.7276L6.9077 18.3639C6.74574 18.5253 6.52841 18.619 6.29986 18.626C6.0713 18.633 5.84866 18.5527 5.67715 18.4015C5.50564 18.2502 5.39813 18.0394 5.37644 17.8118C5.35476 17.5841 5.42053 17.3568 5.5604 17.1759L5.6351 17.0913L6.2714 16.455ZM11.999 6.6C13.4312 6.6 14.8047 7.16893 15.8174 8.18162C16.8301 9.19432 17.399 10.5678 17.399 12C17.399 13.4322 16.8301 14.8057 15.8174 15.8184C14.8047 16.8311 13.4312 17.4 11.999 17.4C10.5668 17.4 9.19332 16.8311 8.18063 15.8184C7.16793 14.8057 6.599 13.4322 6.599 12C6.599 10.5678 7.16793 9.19432 8.18063 8.18162C9.19332 7.16893 10.5668 6.6 11.999 6.6ZM11.999 8.4C11.0442 8.4 10.1285 8.77928 9.45342 9.45442C8.77829 10.1295 8.399 11.0452 8.399 12C8.399 12.9548 8.77829 13.8705 9.45342 14.5456C10.1285 15.2207 11.0442 15.6 11.999 15.6C12.9538 15.6 13.8695 15.2207 14.5446 14.5456C15.2197 13.8705 15.599 12.9548 15.599 12C15.599 11.0452 15.2197 10.1295 14.5446 9.45442C13.8695 8.77928 12.9538 8.4 11.999 8.4ZM4.799 11.1C5.02839 11.1003 5.24903 11.1881 5.41583 11.3456C5.58264 11.503 5.68301 11.7183 5.69646 11.9473C5.7099 12.1763 5.6354 12.4017 5.48816 12.5776C5.34093 12.7536 5.13209 12.8666 4.9043 12.8937L4.799 12.9H3.899C3.66961 12.8997 3.44897 12.8119 3.28217 12.6544C3.11537 12.497 3.01499 12.2817 3.00155 12.0527C2.9881 11.8237 3.06261 11.5983 3.20984 11.4224C3.35707 11.2464 3.56592 11.1334 3.7937 11.1063L3.899 11.1H4.799ZM20.099 11.1C20.3377 11.1 20.5666 11.1948 20.7354 11.3636C20.9042 11.5324 20.999 11.7613 20.999 12C20.999 12.2387 20.9042 12.4676 20.7354 12.6364C20.5666 12.8052 20.3377 12.9 20.099 12.9H19.199C18.9603 12.9 18.7314 12.8052 18.5626 12.6364C18.3938 12.4676 18.299 12.2387 18.299 12C18.299 11.7613 18.3938 11.5324 18.5626 11.3636C18.7314 11.1948 18.9603 11.1 19.199 11.1H20.099ZM5.6351 5.6361C5.79008 5.48114 5.99627 5.38805 6.21499 5.3743C6.43371 5.36055 6.64994 5.42707 6.8231 5.5614L6.9077 5.6361L7.544 6.2724C7.70542 6.43436 7.79913 6.65169 7.80611 6.88025C7.81309 7.1088 7.73281 7.33144 7.58158 7.50295C7.43035 7.67446 7.21951 7.78197 6.99188 7.80366C6.76425 7.82534 6.5369 7.75957 6.356 7.6197L6.2714 7.545L5.6351 6.9087C5.46638 6.73992 5.3716 6.51105 5.3716 6.2724C5.3716 6.03375 5.46638 5.80487 5.6351 5.6361ZM18.3629 5.6361C18.5316 5.80487 18.6264 6.03375 18.6264 6.2724C18.6264 6.51105 18.5316 6.73992 18.3629 6.9087L17.7266 7.545C17.6436 7.63096 17.5443 7.69952 17.4345 7.74669C17.3247 7.79386 17.2066 7.81869 17.0871 7.81973C16.9676 7.82076 16.8491 7.79799 16.7384 7.75274C16.6278 7.70749 16.5274 7.64066 16.4428 7.55616C16.3583 7.47165 16.2915 7.37117 16.2463 7.26056C16.201 7.14995 16.1782 7.03144 16.1793 6.91194C16.1803 6.79244 16.2051 6.67434 16.2523 6.56454C16.2995 6.45473 16.368 6.35542 16.454 6.2724L17.0903 5.6361C17.2591 5.46738 17.488 5.37259 17.7266 5.37259C17.9653 5.37259 18.1941 5.46738 18.3629 5.6361ZM11.999 3C12.2377 3 12.4666 3.09482 12.6354 3.2636C12.8042 3.43239 12.899 3.66131 12.899 3.9V4.8C12.899 5.03869 12.8042 5.26761 12.6354 5.4364C12.4666 5.60518 12.2377 5.7 11.999 5.7C11.7603 5.7 11.5314 5.60518 11.3626 5.4364C11.1938 5.26761 11.099 5.03869 11.099 4.8V3.9C11.099 3.66131 11.1938 3.43239 11.3626 3.2636C11.5314 3.09482 11.7603 3 11.999 3Z" fill="#212121"></path>
      </g>
    </g>
    <defs>
      <clipPath id="clip0_43_2138">
        <rect width="24" height="24" fill="white"></rect>
      </clipPath>
      <clipPath id="clip1_43_2138">
        <rect width="24" height="24" fill="white"></rect>
      </clipPath>
    </defs>
  </symbol>
  <symbol fill="none" xmlns="http://www.w3.org/2000/svg" viewBox="0 0 24 24" id="dark-mode-icon">
    <path d="M19.8439 13.0975C19.2244 13.262 18.5861 13.3453 17.9451 13.3453C15.9933 13.3453 14.1603 12.5865 12.7835 11.2097C11.8793 10.3003 11.2294 9.16991 10.8983 7.93109C10.5672 6.69227 10.5666 5.38831 10.8965 4.14918C10.9377 3.99425 10.9375 3.83121 10.8958 3.67641C10.8541 3.52162 10.7724 3.38051 10.6589 3.26724C10.5455 3.15397 10.4042 3.07253 10.2494 3.03108C10.0945 2.98963 9.93147 2.98964 9.77661 3.0311C8.22533 3.44449 6.81004 4.25854 5.6727 5.3916C2.1091 8.9552 2.1091 14.7559 5.6727 18.3213C6.51975 19.1731 7.52731 19.8484 8.63708 20.3082C9.74684 20.768 10.9368 21.0031 12.138 21C13.3389 21.0033 14.5286 20.7684 15.6381 20.3088C16.7476 19.8491 17.7548 19.1739 18.6015 18.3222C19.7354 17.1847 20.5498 15.7686 20.9629 14.2165C21.004 14.0616 21.0036 13.8987 20.9619 13.744C20.9203 13.5893 20.8387 13.4483 20.7254 13.335C20.6121 13.2217 20.4711 13.1402 20.3164 13.0985C20.1617 13.0568 19.9988 13.0565 19.8439 13.0975ZM17.3097 17.0295C16.6323 17.7107 15.8264 18.2508 14.9389 18.6184C14.0513 18.9861 13.0996 19.1741 12.1389 19.1715C11.1779 19.1739 10.2259 18.9858 9.33808 18.6179C8.45023 18.2501 7.6441 17.7099 6.96632 17.0286C4.1158 14.1772 4.1158 9.53664 6.96632 6.68521C7.51713 6.13501 8.15305 5.67721 8.8496 5.32943C8.74764 6.64504 8.93092 7.96715 9.3869 9.20541C9.84289 10.4437 10.5608 11.5689 11.4917 12.5042C12.4249 13.4379 13.5498 14.1579 14.7886 14.6142C16.0274 15.0705 17.3505 15.2524 18.6664 15.1472C18.3168 15.8425 17.8588 16.4779 17.3097 17.0295Z" fill="#212121"></path>
  </symbol>
  <symbol fill="none" xmlns="http://www.w3.org/2000/svg" viewBox="0 0 24 24" id="percent-icon">
    <path d="M7.78125 11.0625C6.875 11.0625 6.10156 10.7422 5.46094 10.1016C4.82031 9.46094 4.5 8.6875 4.5 7.78125C4.5 6.875 4.82031 6.10156 5.46094 5.46094C6.10156 4.82031 6.875 4.5 7.78125 4.5C8.6875 4.5 9.46094 4.82031 10.1016 5.46094C10.7422 6.10156 11.0625 6.875 11.0625 7.78125C11.0625 8.6875 10.7422 9.46094 10.1016 10.1016C9.46094 10.7422 8.6875 11.0625 7.78125 11.0625ZM7.78125 9.1875C8.17188 9.1875 8.50375 9.05063 8.77688 8.77688C9.05063 8.50375 9.1875 8.17188 9.1875 7.78125C9.1875 7.39062 9.05063 7.05875 8.77688 6.78563C8.50375 6.51188 8.17188 6.375 7.78125 6.375C7.39062 6.375 7.05875 6.51188 6.78563 6.78563C6.51188 7.05875 6.375 7.39062 6.375 7.78125C6.375 8.17188 6.51188 8.50375 6.78563 8.77688C7.05875 9.05063 7.39062 9.1875 7.78125 9.1875ZM16.2188 19.5C15.3125 19.5 14.5391 19.1797 13.8984 18.5391C13.2578 17.8984 12.9375 17.125 12.9375 16.2188C12.9375 15.3125 13.2578 14.5391 13.8984 13.8984C14.5391 13.2578 15.3125 12.9375 16.2188 12.9375C17.125 12.9375 17.8984 13.2578 18.5391 13.8984C19.1797 14.5391 19.5 15.3125 19.5 16.2188C19.5 17.125 19.1797 17.8984 18.5391 18.5391C17.8984 19.1797 17.125 19.5 16.2188 19.5ZM16.2188 17.625C16.6094 17.625 16.9412 17.4881 17.2144 17.2144C17.4881 16.9412 17.625 16.6094 17.625 16.2188C17.625 15.8281 17.4881 15.4963 17.2144 15.2231C16.9412 14.9494 16.6094 14.8125 16.2188 14.8125C15.8281 14.8125 15.4963 14.9494 15.2231 15.2231C14.9494 15.4963 14.8125 15.8281 14.8125 16.2188C14.8125 16.6094 14.9494 16.9412 15.2231 17.2144C15.4963 17.4881 15.8281 17.625 16.2188 17.625ZM5.8125 19.5L4.5 18.1875L18.1875 4.5L19.5 5.8125L5.8125 19.5Z" fill="#212121"></path>
  </symbol>
</svg>